<svg xmlns="http://www.w3.org/2000/svg" xmlns:xlink="http://www.w3.org/1999/xlink" width="500" zoomAndPan="magnify" viewBox="0 0 375 187.499995" height="250" preserveAspectRatio="xMidYMid meet" version="1.0"><defs><g/><clipPath id="b25c607f36"><path d="M 0.5 0 L 374.5 0 L 374.5 187 L 0.5 187 Z M 0.5 0 " clip-rule="nonzero"/></clipPath><clipPath id="5b2d4bf1db"><path d="M 0.101562 65 L 76.695312 65 L 76.695312 74 L 0.101562 74 Z M 0.101562 65 " clip-rule="nonzero"/></clipPath><clipPath id="6f47152070"><path d="M 4 0.503906 L 13 0.503906 L 13 75 L 4 75 Z M 4 0.503906 " clip-rule="nonzero"/></clipPath><clipPath id="d740fb3a7c"><rect x="0" width="77" y="0" height="76"/></clipPath><clipPath id="f55592eece"><path d="M 0.425781 2 L 77 2 L 77 11 L 0.425781 11 Z M 0.425781 2 " clip-rule="nonzero"/></clipPath><clipPath id="35cbc4fcb3"><path d="M 64 1 L 73 1 L 73 75.4375 L 64 75.4375 Z M 64 1 " clip-rule="nonzero"/></clipPath><clipPath id="b5dc44aa8b"><rect x="0" width="78" y="0" height="76"/></clipPath></defs><g clip-path="url(#b25c607f36)"><path fill="#ffffff" d="M 0.5 0 L 374.5 0 L 374.5 187 L 0.5 187 Z M 0.5 0 " fill-opacity="1" fill-rule="nonzero"/><path fill="#baf3dc" d="M 0.5 0 L 374.5 0 L 374.5 187 L 0.5 187 Z M 0.5 0 " fill-opacity="1" fill-rule="nonzero"/></g><g fill="#000000" fill-opacity="1"><g transform="translate(84.735267, 115.594484)"><g><path d="M 50.84375 0 L 34.609375 0 L 15.546875 -21.9375 L 15.546875 0 L 3.765625 0 L 3.765625 -51.71875 L 15.546875 -51.71875 L 15.546875 -30.59375 L 33.28125 -51.71875 L 47.578125 -51.71875 L 26.765625 -27.203125 Z M 50.84375 0 "/></g></g></g><g fill="#000000" fill-opacity="1"><g transform="translate(125.790068, 115.594484)"><g><path d="M 30.03125 -51.71875 L 50.90625 0 L 38.234375 0 L 34.421875 -10.34375 L 14.734375 -10.34375 L 10.90625 0 L -1.75 0 L 19.125 -51.71875 Z M 30.40625 -20.6875 L 24.640625 -35.734375 L 24.515625 -35.734375 L 18.75 -20.6875 Z M 30.40625 -20.6875 "/></g></g></g><g fill="#000000" fill-opacity="1"><g transform="translate(166.65683, 115.594484)"><g><path d="M -1.875 -51.71875 L 12.28125 -51.71875 L 23.0625 -35.171875 L 33.84375 -51.71875 L 48.015625 -51.71875 L 28.96875 -23.1875 L 28.96875 0 L 17.171875 0 L 17.171875 -23.1875 Z M -1.875 -51.71875 "/></g></g></g><g fill="#000000" fill-opacity="1"><g transform="translate(204.514918, 115.594484)"><g><path d="M 3.765625 -51.71875 L 22.25 -51.71875 C 27.226562 -51.71875 31.28125 -50.390625 34.40625 -47.734375 C 37.539062 -45.078125 39.109375 -41.285156 39.109375 -36.359375 C 39.109375 -32.554688 38.15625 -29.367188 36.25 -26.796875 C 34.351562 -24.222656 31.773438 -22.414062 28.515625 -21.375 L 46.328125 0 L 31.34375 0 L 15.546875 -20.4375 L 15.546875 0 L 3.765625 0 Z M 15.546875 -28.78125 L 16.921875 -28.78125 C 18.015625 -28.78125 18.9375 -28.800781 19.6875 -28.84375 C 20.4375 -28.882812 21.289062 -29.03125 22.25 -29.28125 C 23.21875 -29.53125 23.992188 -29.882812 24.578125 -30.34375 C 25.160156 -30.800781 25.660156 -31.46875 26.078125 -32.34375 C 26.492188 -33.21875 26.703125 -34.28125 26.703125 -35.53125 C 26.703125 -36.789062 26.492188 -37.859375 26.078125 -38.734375 C 25.660156 -39.617188 25.160156 -40.289062 24.578125 -40.75 C 23.992188 -41.207031 23.21875 -41.5625 22.25 -41.8125 C 21.289062 -42.0625 20.4375 -42.207031 19.6875 -42.25 C 18.9375 -42.289062 18.015625 -42.3125 16.921875 -42.3125 L 15.546875 -42.3125 Z M 15.546875 -28.78125 "/></g></g></g><g fill="#000000" fill-opacity="1"><g transform="translate(241.119399, 115.594484)"><g><path d="M 30.03125 -51.71875 L 50.90625 0 L 38.234375 0 L 34.421875 -10.34375 L 14.734375 -10.34375 L 10.90625 0 L -1.75 0 L 19.125 -51.71875 Z M 30.40625 -20.6875 L 24.640625 -35.734375 L 24.515625 -35.734375 L 18.75 -20.6875 Z M 30.40625 -20.6875 "/></g></g></g><g transform="matrix(1, 0, 0, 1, 15, 95)"><g clip-path="url(#d740fb3a7c)"><g clip-path="url(#5b2d4bf1db)"><path stroke-linecap="butt" transform="matrix(0.803924, 0, 0, 0.803924, 4.198807, 65.261955)" fill="none" stroke-linejoin="miter" d="M 0.000511965 4.999599 L 84.435045 4.999599 " stroke="#292929" stroke-width="10" stroke-opacity="1" stroke-miterlimit="4"/></g><g clip-path="url(#6f47152070)"><path stroke-linecap="butt" transform="matrix(0, 0.803924, -0.803924, 0, 12.233921, 4.59929)" fill="none" stroke-linejoin="miter" d="M -0.00203206 4.999328 L 82.464614 4.999328 " stroke="#292929" stroke-width="10" stroke-opacity="1" stroke-miterlimit="4"/></g></g></g><g transform="matrix(1, 0, 0, 1, 283, 16)"><g clip-path="url(#b5dc44aa8b)"><g clip-path="url(#f55592eece)"><path stroke-linecap="butt" transform="matrix(-0.803924, 0, 0, -0.803924, 72.793199, 10.732956)" fill="none" stroke-linejoin="miter" d="M 0.000286808 4.998127 L 84.43482 4.998127 " stroke="#292929" stroke-width="10" stroke-opacity="1" stroke-miterlimit="4"/></g><g clip-path="url(#35cbc4fcb3)"><path stroke-linecap="butt" transform="matrix(0, -0.803924, 0.803924, 0, 64.758076, 71.395621)" fill="none" stroke-linejoin="miter" d="M 0.00135589 4.999564 L 82.463143 4.999564 " stroke="#292929" stroke-width="10" stroke-opacity="1" stroke-miterlimit="4"/></g></g></g></svg>